<?xml version="1.0" standalone="no"?>
<!DOCTYPE svg PUBLIC "-//W3C//DTD SVG 20010904//EN"
 "http://www.w3.org/TR/2001/REC-SVG-20010904/DTD/svg10.dtd">
<svg version="1.0" xmlns="http://www.w3.org/2000/svg"
 width="600.000000pt" height="600.000000pt" viewBox="0 0 600.000000 600.000000"
 preserveAspectRatio="xMidYMid meet">

<g transform="translate(0.000000,600.000000) scale(0.100000,-0.100000)"
fill="#000000" stroke="none">
<path d="M720 3403 l0 -2018 1133 -398 c622 -218 1139 -397 1147 -397 8 0 525
179 1147 397 l1133 398 0 2018 0 2017 -2280 0 -2280 0 0 -2017z m4450 -37 c0
-1522 -3 -1915 -12 -1919 -7 -2 -496 -168 -1085 -367 l-1073 -362 -1057 356
c-582 197 -1070 362 -1085 368 l-28 10 0 1914 0 1914 2170 0 2170 0 0 -1914z"/>
<path d="M2503 4915 c-21 -9 -33 -21 -33 -33 0 -29 8 -31 57 -15 52 18 112 12
130 -14 7 -9 13 -31 13 -49 l0 -33 -54 6 c-96 10 -153 -23 -163 -95 -14 -104
102 -160 195 -93 l30 21 14 -22 c14 -20 18 -21 43 -10 20 9 25 17 19 30 -4 9
-10 73 -14 141 -6 123 -6 123 -38 152 -29 26 -39 29 -100 29 -37 -1 -82 -7
-99 -15z m165 -213 c5 -34 -22 -68 -63 -82 -47 -16 -85 6 -85 50 0 41 33 61
95 58 44 -3 50 -6 53 -26z"/>
<path d="M3324 4896 c-67 -67 -33 -137 86 -178 60 -22 65 -25 65 -53 0 -55
-70 -67 -167 -30 -14 6 -18 2 -18 -18 0 -35 21 -48 88 -54 108 -10 172 31 172
109 0 50 -30 81 -98 101 -74 22 -92 34 -92 62 0 43 61 56 148 29 19 -5 22 -3
22 20 0 34 -30 46 -112 46 -55 0 -63 -3 -94 -34z"/>
<path d="M2781 4903 c0 -10 22 -88 48 -173 l47 -155 37 -3 c41 -4 37 -13 78
167 13 58 24 89 29 80 4 -8 18 -59 30 -114 28 -125 33 -135 70 -135 18 0 33 7
38 18 10 18 102 312 102 325 0 4 -15 7 -34 7 l-33 0 -32 -118 c-17 -65 -31
-124 -31 -130 0 -7 -3 -12 -8 -12 -4 0 -21 57 -37 128 l-30 127 -37 3 c-28 2
-37 -1 -41 -15 -3 -10 -18 -72 -33 -137 -15 -66 -30 -114 -32 -106 -3 8 -19
68 -36 134 l-31 121 -32 3 c-27 3 -33 0 -32 -15z"/>
<path d="M3455 4481 c-39 -10 -75 -29 -75 -41 0 -5 24 -6 54 -3 80 8 106 -1
106 -37 0 -16 -9 -52 -20 -80 -15 -38 -17 -50 -6 -50 31 0 74 79 83 150 5 47
4 50 -21 60 -30 11 -76 12 -121 1z"/>
<path d="M2400 4451 c0 -5 28 -31 63 -57 72 -54 215 -125 302 -149 83 -23 286
-31 383 -15 143 23 342 111 342 152 0 10 -2 18 -4 18 -3 0 -44 -13 -93 -29
-146 -49 -236 -64 -378 -64 -193 -1 -367 39 -527 119 -70 35 -88 40 -88 25z"/>
<path d="M2010 3675 l0 -115 80 0 c79 0 80 0 80 25 0 23 -3 25 -50 25 -43 0
-50 3 -50 20 0 17 7 20 40 20 36 0 40 3 40 25 0 23 -4 25 -41 25 -33 0 -40 3
-37 18 2 13 15 18 51 20 42 3 47 5 47 28 0 23 -2 24 -80 24 l-80 0 0 -115z"/>
<path d="M2290 3675 l0 -115 73 0 c75 1 95 9 115 47 15 27 16 108 2 134 -17
31 -64 49 -130 49 l-60 0 0 -115z m124 43 c31 -44 13 -108 -29 -108 -24 0 -25
3 -25 65 0 58 2 65 19 65 11 0 27 -10 35 -22z"/>
<path d="M2620 3698 c1 -96 7 -115 47 -136 45 -25 132 -5 147 33 3 9 6 57 6
106 l0 89 -30 0 -30 0 0 -83 c0 -81 -9 -107 -36 -107 -32 0 -44 31 -44 111 l0
79 -30 0 -30 0 0 -92z"/>
<path d="M2997 3779 c-44 -26 -61 -122 -32 -179 18 -35 76 -56 129 -46 30 6
36 11 36 31 0 23 -4 25 -44 25 -52 0 -70 18 -69 68 1 45 25 64 76 60 35 -3 38
-2 35 22 -3 23 -7 25 -58 27 -30 2 -63 -2 -73 -8z"/>
<path d="M3300 3786 c0 -2 -18 -54 -40 -115 l-39 -111 35 0 c27 0 37 5 41 20
4 15 14 20 40 20 26 0 36 -5 40 -20 4 -15 14 -20 43 -20 l37 0 -40 115 -41
115 -38 0 c-21 0 -38 -2 -38 -4z m50 -105 c8 -28 6 -31 -12 -31 -16 0 -19 5
-14 23 3 12 6 28 6 36 0 21 9 8 20 -28z"/>
<path d="M3540 3765 c0 -22 4 -25 35 -25 l35 0 0 -90 0 -90 35 0 35 0 0 90 0
90 30 0 c25 0 30 4 30 25 l0 25 -100 0 -100 0 0 -25z"/>
<path d="M3850 3675 l0 -115 85 0 c84 0 85 0 85 25 0 23 -3 25 -50 25 -43 0
-50 3 -50 20 0 17 7 20 40 20 36 0 40 3 40 25 0 23 -4 25 -40 25 -33 0 -40 3
-40 20 0 17 7 20 50 20 47 0 50 2 50 25 0 25 -1 25 -85 25 l-85 0 0 -115z"/>
<path d="M1500 3270 c0 -7 490 -10 1450 -10 960 0 1450 3 1450 10 0 7 -490 10
-1450 10 -960 0 -1450 -3 -1450 -10z"/>
<path d="M2660 2864 c0 -86 5 -164 10 -174 11 -21 67 -35 99 -25 29 9 30 65 1
65 -19 0 -20 7 -20 145 l0 145 -45 0 -45 0 0 -156z"/>
<path d="M3510 2960 c0 -59 -1 -60 -21 -49 -30 16 -85 2 -108 -27 -40 -51 -35
-159 9 -199 12 -11 34 -18 53 -17 17 1 60 1 95 1 l62 0 0 176 0 175 -45 0 -45
0 0 -60z m-16 -106 c12 -5 16 -21 16 -65 0 -56 -1 -59 -25 -59 -42 0 -60 64
-29 108 17 25 16 24 38 16z"/>
<path d="M2460 2982 c-19 -9 -45 -33 -58 -52 -21 -31 -23 -44 -20 -113 3 -76
5 -80 40 -112 41 -38 104 -53 165 -38 34 8 38 12 41 43 l3 35 -59 -3 c-54 -3
-61 -1 -81 24 -29 37 -28 95 3 131 21 25 30 28 75 26 l51 -2 0 33 c0 26 -5 35
-22 40 -43 11 -103 6 -138 -12z"/>
<path d="M2861 2903 c-84 -41 -81 -193 4 -229 96 -40 185 14 185 111 0 107
-93 165 -189 118z m93 -69 c11 -29 6 -83 -10 -98 -8 -9 -17 -16 -19 -16 -15 0
-35 37 -35 65 0 48 9 65 35 65 13 0 26 -7 29 -16z"/>
<path d="M3082 2804 c3 -97 5 -107 27 -125 28 -23 62 -24 101 -4 17 9 30 11
30 5 0 -5 18 -10 40 -10 l40 0 0 120 0 120 -45 0 -45 0 0 -90 c0 -88 0 -90
-24 -90 -31 0 -36 15 -36 106 l0 74 -46 0 -46 0 4 -106z"/>
<path d="M3136 2514 c-32 -32 -13 -74 34 -74 32 0 50 17 50 47 0 38 -55 56
-84 27z"/>
<path d="M1480 2478 c-63 -32 -82 -72 -78 -166 3 -70 5 -76 39 -107 41 -37 96
-51 165 -40 42 6 44 8 44 41 l0 34 -57 -1 c-50 -2 -59 1 -80 25 -30 35 -31 93
-2 130 18 23 28 26 80 26 59 0 59 0 59 29 0 37 -7 41 -73 47 -41 4 -61 1 -97
-18z"/>
<path d="M4239 2483 c-40 -25 -59 -74 -59 -154 0 -110 43 -169 125 -169 80 0
125 61 125 170 0 72 -17 119 -55 148 -34 27 -98 29 -136 5z m91 -72 c16 -32
13 -147 -6 -165 -34 -35 -54 -4 -54 84 0 66 12 100 35 100 8 0 19 -9 25 -19z"/>
<path d="M3978 2473 c-34 -13 -38 -19 -38 -50 0 -33 1 -34 35 -27 l35 6 0
-116 0 -116 45 0 45 0 0 160 0 160 -42 -1 c-24 0 -60 -7 -80 -16z"/>
<path d="M4508 2472 c-33 -15 -38 -21 -38 -50 l0 -34 40 7 40 7 0 -116 0 -116
45 0 45 0 0 160 0 160 -47 -1 c-27 0 -65 -8 -85 -17z"/>
<path d="M2967 2463 c-4 -3 -7 -15 -7 -25 0 -10 -9 -23 -20 -30 -24 -15 -27
-58 -5 -58 12 0 15 -14 15 -68 0 -44 5 -75 15 -89 18 -25 63 -37 105 -28 25 5
30 12 30 35 0 24 -5 29 -27 32 -27 3 -28 6 -31 61 l-3 57 31 0 c27 0 30 3 30
30 0 27 -3 30 -30 30 -27 0 -30 3 -30 30 0 27 -3 30 -33 30 -19 0 -37 -3 -40
-7z"/>
<path d="M1765 2413 c-64 -14 -95 -54 -95 -123 0 -79 49 -130 125 -130 75 0
125 53 125 132 -1 79 -77 139 -155 121z m53 -75 c27 -27 6 -118 -28 -118 -23
0 -39 75 -24 114 7 19 35 21 52 4z"/>
<path d="M2070 2404 c-22 -10 -36 -11 -38 -4 -2 5 -21 10 -43 10 l-39 0 0
-120 0 -120 45 0 44 0 3 88 c3 87 3 87 31 90 l27 3 0 -90 0 -91 45 0 44 0 3
88 c3 85 3 87 28 87 25 0 25 -2 28 -87 l3 -88 44 0 45 0 0 89 c0 49 -4 101
-10 116 -14 37 -54 49 -108 32 -38 -13 -48 -13 -70 -1 -33 17 -38 17 -82 -2z"/>
<path d="M2505 2413 c-11 -3 -26 -10 -32 -15 -9 -7 -13 -7 -13 1 0 6 -17 11
-40 11 l-40 0 0 -170 0 -170 45 0 45 0 0 50 0 51 33 -6 c78 -15 130 43 124
138 -3 45 -9 63 -28 82 -26 25 -62 36 -94 28z m23 -75 c31 -31 1 -128 -35
-114 -8 3 -17 6 -19 6 -2 0 -4 27 -4 60 0 56 2 60 23 60 13 0 28 -5 35 -12z"/>
<path d="M3395 2413 c-11 -3 -26 -10 -34 -17 -11 -8 -15 -8 -18 2 -3 7 -21 12
-44 12 l-39 0 0 -120 0 -120 45 0 44 0 3 88 c3 85 3 87 28 87 25 0 25 -2 28
-87 l3 -88 44 0 45 0 0 103 c0 109 -3 118 -37 136 -22 11 -34 12 -68 4z"/>
<path d="M3593 2406 c-41 -19 -56 -48 -56 -113 0 -86 46 -131 119 -117 36 7
42 -1 21 -31 -11 -14 -23 -17 -65 -13 -51 5 -52 5 -52 -22 0 -34 14 -40 92
-40 53 0 63 3 89 29 l29 29 0 142 0 141 -47 -2 c-27 -1 -59 1 -73 4 -14 4 -39
1 -57 -7z m92 -111 c0 -47 -2 -50 -25 -50 -18 0 -27 7 -34 27 -14 39 7 80 37
76 19 -3 22 -9 22 -53z"/>
<path d="M2662 2306 c2 -85 6 -108 22 -125 23 -25 65 -27 106 -6 17 9 30 11
30 5 0 -5 18 -10 40 -10 l40 0 0 120 0 120 -45 0 -45 0 0 -89 c0 -73 -3 -90
-16 -95 -33 -13 -44 13 -44 100 l0 84 -46 0 -46 0 4 -104z"/>
<path d="M3130 2290 l0 -120 45 0 45 0 0 120 0 120 -45 0 -45 0 0 -120z"/>
<path d="M1500 1750 c0 -7 490 -10 1450 -10 960 0 1450 3 1450 10 0 7 -490 10
-1450 10 -960 0 -1450 -3 -1450 -10z"/>
</g>
</svg>
